<?xml version="1.0" encoding="UTF-8"?>
<svg id="Calque_1" data-name="Calque 1" xmlns="http://www.w3.org/2000/svg" viewBox="0 0 545.9 104.4">
  <defs>
    <style>
      .cls-1 {
        fill: #fff;
      }
    </style>
  </defs>
  <path class="cls-1" d="M127.8,69.3c0,21.9,13.5,35,33.5,35,10,0,18.4-2.8,23.1-10.1v10.1h18.3V0h-19V44.3c-4.3-7.3-12.3-10.6-22.3-10.6-19.5,0-33.6,13.4-33.6,35.6Zm56.5,0c0,12.5-8.5,20.3-18.7,20.3s-18.7-7.8-18.7-20.3,8.2-20.7,18.7-20.7c10.2,0,18.7,8.1,18.7,20.7Z"/>
  <path class="cls-1" d="M261.8,77.4c-2.2,8.1-7.7,12.1-16.4,12.1-10.1,0-18.4-6.1-18.6-16.9h47.9c.6-2.7,.9-5.5,.9-8.6,0-19.4-13.2-30.3-32.7-30.3-20.8,0-35.1,14.8-35.1,34.9,0,22.4,15.8,35.8,37.6,35.8,16.5,0,27.7-6.9,32.6-20.6l-16.2-6.4Zm-35-17.5c1.8-7.8,8.3-12.4,16.1-12.4,8.5,0,14.3,4.6,14.3,11.8l-.1,.6h-30.3Z"/>
  <path class="cls-1" d="M332.3,77.4c-2.2,8.1-7.7,12.1-16.4,12.1-10.1,0-18.4-6.1-18.6-16.9h47.9c.6-2.7,.9-5.5,.9-8.6,0-19.4-13.2-30.3-32.7-30.3-20.8,0-35.1,14.8-35.1,34.9,0,22.4,15.8,35.8,37.6,35.8,16.5,0,27.7-6.9,32.6-20.6l-16.2-6.4Zm-35-17.5c1.8-7.8,8.3-12.4,16.1-12.4,8.5,0,14.3,4.6,14.3,11.8l-.1,.6h-30.3Z"/>
  <path class="cls-1" d="M413.1,104.4v-17.2h-39.9l38.8-37.8v-15.7h-61.4v16.4h37.5l-38.7,37.9v16.4h63.7Z"/>
  <path class="cls-1" d="M468.6,77.4c-2.2,8.1-7.7,12.1-16.4,12.1-10.1,0-18.4-6.1-18.6-16.9h47.9c.6-2.7,.9-5.5,.9-8.6,0-19.4-13.2-30.3-32.7-30.3-20.8,0-35.1,14.8-35.1,34.9,0,22.4,15.8,35.8,37.6,35.8,16.5,0,27.7-6.9,32.6-20.6l-16.2-6.4Zm-35-17.5c1.8-7.8,8.3-12.4,16.1-12.4,8.5,0,14.3,4.6,14.3,11.8l-.1,.6h-30.3Z"/>
  <path class="cls-1" d="M527.4,58.1v2h18.5v-5.4c0-12.1-7.6-20.9-20.3-20.9-8.2,0-14,4-17,10.6v-10.6h-19.1V104.4h19.1V58.9c0-7.2,3.9-11.2,9.8-11.2,5.5,.1,9,5.2,9,10.4Z"/>
  <rect class="cls-1" x="84.9" y="33.7" width="23.4" height="13.7"/>
  <rect class="cls-1" x="84.9" y="52.7" width="23.4" height="13.7"/>
  <rect class="cls-1" x="84.9" y="71.7" width="23.4" height="13.7"/>
  <rect class="cls-1" y="90.7" width="23.4" height="13.7"/>
  <rect class="cls-1" x="28.3" y="90.7" width="23.4" height="13.7"/>
  <rect class="cls-1" x="56.6" y="90.7" width="23.4" height="13.7"/>
  <rect class="cls-1" x="84.9" y="90.7" width="23.4" height="13.7"/>
  <rect class="cls-1" x="56.6" y="71.7" width="23.4" height="13.7"/>
  <rect class="cls-1" x="28.3" y="71.7" width="23.4" height="13.7"/>
  <rect class="cls-1" x="28.3" y="52.7" width="23.4" height="13.7"/>
</svg>