<?xml version="1.0" encoding="UTF-8"?>
<svg id="Layer_1" data-name="Layer 1" xmlns="http://www.w3.org/2000/svg" viewBox="0 0 1406.8 426.3">
  <defs>
    <style>
      .cls-1, .cls-2 {
        fill: #fff;
      }

      .cls-2 {
        stroke: #000;
        stroke-width: 21.32px;
      }
    </style>
  </defs>
  <ellipse class="cls-1" cx="216.7" cy="213.15" rx="216.7" ry="213.15"/>
  <ellipse class="cls-2" cx="216.7" cy="213.15" rx="129.67" ry="127.89"/>
  <polygon points="172.3 275.32 285.98 213.15 172.3 150.98 172.3 275.32"/>
  <path class="cls-1" d="M664.32,170.52c-10.66,51.51-17.76,111.9-21.32,138.55h-3.55c-3.55-26.64-10.66-87.04-21.32-136.77l-26.64-124.34h-79.93V383.67h49.74V106.58l5.33,26.64,51.51,250.45h49.74l49.74-250.45,3.55-26.64V381.9h49.74V47.96h-81.71c1.78,0-24.87,122.56-24.87,122.56Z"/>
  <path class="cls-1" d="M905.89,332.16c-5.33,8.88-14.21,15.99-24.87,15.99s-15.99-8.88-15.99-30.2V138.55h-56.84v181.18c0,44.41,15.99,65.72,49.74,65.72,23.09,0,40.85-10.66,55.06-33.75h1.78l5.33,30.2h44.41V138.55h-58.62v193.61h0Z"/>
  <path class="cls-1" d="M1072.86,234.47c-17.76-12.43-30.2-21.32-30.2-40.85,0-14.21,7.11-21.32,21.32-21.32,15.99,0,21.32,10.66,21.32,47.96l47.96-1.78c3.55-58.62-15.99-83.48-69.27-83.48-47.96,0-72.83,21.32-72.83,63.95,0,39.08,19.54,56.84,51.51,81.71,28.42,21.32,44.41,31.97,44.41,49.74,0,12.43-8.88,21.32-23.09,21.32-17.76,0-26.64-15.99-24.87-42.63h-47.96c-7.11,51.51,14.21,79.93,69.27,79.93,49.74,0,74.6-21.32,74.6-65.72,3.55-40.85-17.76-56.84-62.17-88.81Z"/>
  <polygon class="cls-1" points="1223.85 138.55 1168.78 138.55 1168.78 381.9 1223.85 381.9 1223.85 138.55"/>
  <path class="cls-1" d="M1197.2,40.85c-21.32,0-30.2,7.11-30.2,33.75s10.66,33.75,30.2,33.75c21.32,0,30.2-7.11,30.2-33.75,0-24.87-8.88-33.75-30.2-33.75Z"/>
  <path class="cls-1" d="M1406.8,294.86l-49.74-1.78c0,42.63-5.33,56.84-21.32,56.84s-19.54-15.99-19.54-65.72v-47.96c0-49.74,3.55-63.95,19.54-63.95s19.54,14.21,19.54,60.39l49.74-3.55c3.55-37.3-1.78-63.95-15.99-78.16-10.66-10.66-28.42-15.99-51.51-15.99-55.06,0-78.16,28.42-78.16,110.13v33.75c0,83.48,19.54,110.13,76.38,110.13,23.09,0,40.85-5.33,51.51-15.99,14.21-15.99,19.54-40.85,19.54-78.16h0Z"/>
</svg>